<svg width="44" height="44" viewBox="0 0 44 44" fill="none" xmlns="http://www.w3.org/2000/svg">
<rect width="44" height="44" rx="22" fill="white"/>
<g clip-path="url(#clip0_3622_33987)">
<path d="M12.8333 19.8709L13.8518 21.908H19.9629M23.0185 18.8524V15.7969M14.8703 15.7969H30.1481M25.0555 18.9544V22.9266H30.6574M25.0555 29.0376V25.9821M29.1296 29.0376H20.9815M22 18.8524C21.4597 18.8524 20.9416 19.067 20.5596 19.4491C20.1776 19.8311 19.9629 20.3492 19.9629 20.8895V23.945C19.9629 25.0654 20.8796 25.9821 22 25.9821H29.1296C29.6699 25.9821 30.188 25.7674 30.57 25.3854C30.952 25.0034 31.1666 24.4853 31.1666 23.945C31.1666 20.5737 27.9787 18.8524 24.037 18.8524H22Z" stroke="#273675" stroke-width="1.75" stroke-linecap="round" stroke-linejoin="round"/>
</g>
<defs>
<clipPath id="clip0_3622_33987">
<rect width="20" height="20" fill="white" transform="translate(12 12)"/>
</clipPath>
</defs>
</svg>
