<svg width="24" height="24" viewBox="0 0 24 24" fill="none" xmlns="http://www.w3.org/2000/svg">
<path d="M18.9296 5.07036C18.6172 4.75794 18.1107 4.75794 17.7983 5.07036C17.4859 5.38278 17.4859 5.88931 17.7983 6.20173L18.9296 5.07036ZM18.364 18.364L17.7983 18.9297L17.7983 18.9297L18.364 18.364ZM16.1012 7.89879C15.7888 7.58637 15.2823 7.58637 14.9698 7.89879C14.6574 8.21121 14.6574 8.71774 14.9698 9.03016L16.1012 7.89879ZM15.5355 15.5355L14.9698 16.1012L14.9698 16.1012L15.5355 15.5355ZM7.89878 16.1012C8.2112 16.4136 8.71773 16.4136 9.03015 16.1012C9.34257 15.7888 9.34257 15.2823 9.03015 14.9699L7.89878 16.1012ZM7.84196 12.5943C7.77985 12.1569 7.37488 11.8526 6.93744 11.9147C6.5 11.9768 6.19574 12.3818 6.25785 12.8192L7.84196 12.5943ZM5.07035 18.9297C5.38277 19.2421 5.88931 19.2421 6.20172 18.9297C6.51414 18.6172 6.51414 18.1107 6.20172 17.7983L5.07035 18.9297ZM4.22745 9.38081C4.36819 8.962 4.14277 8.50839 3.72396 8.36765C3.30514 8.22691 2.85154 8.45234 2.7108 8.87115L4.22745 9.38081ZM3.56569 2.43431C3.25327 2.1219 2.74673 2.1219 2.43431 2.43431C2.1219 2.74673 2.1219 3.25327 2.43431 3.56569L3.56569 2.43431ZM20.4343 21.5657C20.7467 21.8781 21.2533 21.8781 21.5657 21.5657C21.8781 21.2533 21.8781 20.7467 21.5657 20.4343L20.4343 21.5657ZM17.7983 6.20173C21.0006 9.40403 21.0006 14.596 17.7983 17.7983L18.9296 18.9297C22.7568 15.1025 22.7568 8.8975 18.9296 5.07036L17.7983 6.20173ZM14.9698 9.03016C16.6101 10.6704 16.6101 13.3297 14.9698 14.9699L16.1012 16.1012C18.3663 13.8362 18.3663 10.1638 16.1012 7.89879L14.9698 9.03016ZM12 11.8C12.1105 11.8 12.2 11.8896 12.2 12H13.8C13.8 11.0059 12.9941 10.2 12 10.2V11.8ZM9.03015 14.9699C8.36079 14.3005 7.96539 13.4636 7.84196 12.5943L6.25785 12.8192C6.42834 14.0199 6.97598 15.1784 7.89878 16.1012L9.03015 14.9699ZM6.20172 17.7983C3.92594 15.5225 3.26635 12.2409 4.22745 9.38081L2.7108 8.87115C1.56368 12.2848 2.3487 16.208 5.07035 18.9297L6.20172 17.7983ZM11.8586 11.8586C11.8956 11.8215 11.9446 11.8 12 11.8V10.2C11.5032 10.2 11.0521 10.4024 10.7272 10.7272L11.8586 11.8586ZM2.43431 3.56569L10.7272 11.8586L11.8586 10.7272L3.56569 2.43431L2.43431 3.56569ZM10.7272 11.8586L12.1414 13.2728L13.2728 12.1414L11.8586 10.7272L10.7272 11.8586ZM12.1414 13.2728L14.9698 16.1012L16.1012 14.9699L13.2728 12.1414L12.1414 13.2728ZM14.9698 16.1012L17.7983 18.9297L18.9296 17.7983L16.1012 14.9699L14.9698 16.1012ZM17.7983 18.9297L20.4343 21.5657L21.5657 20.4343L18.9296 17.7983L17.7983 18.9297ZM12.2 12C12.2 12.0555 12.1785 12.1044 12.1414 12.1414L13.2728 13.2728C13.5977 12.9479 13.8 12.4968 13.8 12H12.2Z" fill="#010406"/>
</svg>
