<svg width="24" height="24" viewBox="0 0 24 24" fill="none" xmlns="http://www.w3.org/2000/svg">
<path d="M9 9.99997C9 10.1326 9.05268 10.2598 9.14645 10.3535C9.24021 10.4473 9.36739 10.5 9.5 10.5C9.63261 10.5 9.75979 10.4473 9.85355 10.3535C9.94732 10.2598 10 10.1326 10 9.99997V8.99997C10 8.86736 9.94732 8.74019 9.85355 8.64642C9.75979 8.55265 9.63261 8.49997 9.5 8.49997C9.36739 8.49997 9.24021 8.55265 9.14645 8.64642C9.05268 8.74019 9 8.86736 9 8.99997V9.99997ZM9 9.99997C9 11.3261 9.52678 12.5978 10.4645 13.5355C11.4021 14.4732 12.6739 15 14 15M14 15H15C15.1326 15 15.2598 14.9473 15.3536 14.8535C15.4473 14.7598 15.5 14.6326 15.5 14.5C15.5 14.3674 15.4473 14.2402 15.3536 14.1464C15.2598 14.0526 15.1326 14 15 14H14C13.8674 14 13.7402 14.0526 13.6464 14.1464C13.5527 14.2402 13.5 14.3674 13.5 14.5C13.5 14.6326 13.5527 14.7598 13.6464 14.8535C13.7402 14.9473 13.8674 15 14 15ZM3 20.9998L4.65 17.1998C3.38766 15.4078 2.82267 13.2168 3.06104 11.0379C3.29942 8.85896 4.32479 6.84193 5.94471 5.36531C7.56463 3.88869 9.66775 3.054 11.8594 3.01789C14.051 2.98177 16.1805 3.74671 17.8482 5.16916C19.5159 6.5916 20.6071 8.57376 20.9172 10.7437C21.2272 12.9135 20.7347 15.122 19.5321 16.9546C18.3295 18.7871 16.4994 20.1178 14.3854 20.6969C12.2713 21.276 10.0186 21.0637 8.05 20.0998L3 20.9998Z" stroke="#010406" stroke-width="1.5" stroke-linecap="round" stroke-linejoin="round"/>
</svg>
