<svg width="24" height="24" viewBox="0 0 24 24" fill="none" xmlns="http://www.w3.org/2000/svg">
<path d="M13.5 3.67709L12.9002 4.20647C12.9112 4.21893 12.9226 4.23103 12.9343 4.24277L13.5 3.67709ZM20.3229 13.5L19.7935 12.9002C19.7811 12.9112 19.769 12.9226 19.7572 12.9343L20.3229 13.5ZM20.5 10.6771L21.0998 10.1477C21.0888 10.1353 21.0774 10.1231 21.0657 10.1114L20.5 10.6771ZM10.6771 20.5L10.1114 21.0657C10.1231 21.0774 10.1353 21.0888 10.1477 21.0998L10.6771 20.5ZM13.3229 20.5L13.8523 21.0998C13.8647 21.0888 13.8769 21.0774 13.8886 21.0657L13.3229 20.5ZM3.67709 13.5L4.24277 12.9343L4.22515 12.9167L4.20647 12.9002L3.67709 13.5ZM7 6.2C6.55817 6.2 6.2 6.55817 6.2 7C6.2 7.44183 6.55817 7.8 7 7.8V6.2ZM7.01 7.8C7.45183 7.8 7.81 7.44183 7.81 7C7.81 6.55817 7.45183 6.2 7.01 6.2V7.8ZM3.8 7C3.8 5.23269 5.23269 3.8 7 3.8V2.2C4.34903 2.2 2.2 4.34903 2.2 7H3.8ZM3.8 12V7H2.2V12H3.8ZM7 3.8H12V2.2H7V3.8ZM12 3.8C12.3583 3.8 12.6792 3.95602 12.9002 4.20647L14.0998 3.1477C13.5879 2.56773 12.8364 2.2 12 2.2V3.8ZM20.2 12C20.2 12.3583 20.044 12.6792 19.7935 12.9002L20.8523 14.0998C21.4323 13.5879 21.8 12.8364 21.8 12H20.2ZM19.9002 11.2065C20.0873 11.4185 20.2 11.6951 20.2 12H21.8C21.8 11.2904 21.535 10.6408 21.0998 10.1477L19.9002 11.2065ZM12 20.2C11.6951 20.2 11.4185 20.0873 11.2065 19.9002L10.1477 21.0998C10.6408 21.535 11.2904 21.8 12 21.8V20.2ZM12.7935 19.9002C12.5815 20.0873 12.3049 20.2 12 20.2V21.8C12.7096 21.8 13.3592 21.535 13.8523 21.0998L12.7935 19.9002ZM4.20647 12.9002C3.95602 12.6792 3.8 12.3583 3.8 12H2.2C2.2 12.8364 2.56773 13.5879 3.1477 14.0998L4.20647 12.9002ZM12.9343 4.24277L19.9343 11.2428L21.0657 10.1114L14.0657 3.1114L12.9343 4.24277ZM11.2428 19.9343L4.24277 12.9343L3.1114 14.0657L10.1114 21.0657L11.2428 19.9343ZM19.7572 12.9343L12.7572 19.9343L13.8886 21.0657L20.8886 14.0657L19.7572 12.9343ZM7 7.8H7.01V6.2H7V7.8Z" fill="#010406"/>
</svg>
