<svg width="28" height="28" viewBox="0 0 28 28" fill="none" xmlns="http://www.w3.org/2000/svg">
<path d="M16.275 14L12.6 11.9V16.1L16.275 14Z" fill="#475694"/>
<path fill-rule="evenodd" clip-rule="evenodd" d="M0 14C0 6.26804 6.26801 3.05176e-05 14 3.05176e-05C21.732 3.05176e-05 28 6.26804 28 14C28 21.732 21.732 28 14 28C6.26801 28 0 21.732 0 14ZM19.425 9.36253C20.0375 9.53753 20.475 9.97503 20.65 10.5875C21 11.725 21 14 21 14C21 14 21 16.275 20.7375 17.4125C20.5625 18.025 20.125 18.4625 19.5125 18.6375C18.375 18.9 14 18.9 14 18.9C14 18.9 9.5375 18.9 8.4875 18.6375C7.875 18.4625 7.4375 18.025 7.2625 17.4125C7 16.275 7 14 7 14C7 14 7 11.725 7.175 10.5875C7.35 9.97503 7.78751 9.53753 8.40001 9.36253C9.53751 9.10003 13.9125 9.10003 13.9125 9.10003C13.9125 9.10003 18.375 9.10003 19.425 9.36253Z" fill="#475694"/>
</svg>
