<svg width="24" height="24" viewBox="0 0 24 24" fill="none" xmlns="http://www.w3.org/2000/svg">
<path d="M13.9944 9.5243C14.284 9.85802 14.7892 9.89381 15.123 9.60424C15.4567 9.31468 15.4925 8.80941 15.2029 8.4757L13.9944 9.5243ZM10.0056 14.4757C9.71604 14.142 9.21078 14.1062 8.87707 14.3958C8.54335 14.6853 8.50756 15.1906 8.79713 15.5243L10.0056 14.4757ZM12.8 7C12.8 6.55817 12.4418 6.2 12 6.2C11.5582 6.2 11.2 6.55817 11.2 7H12.8ZM11.2 17C11.2 17.4418 11.5582 17.8 12 17.8C12.4418 17.8 12.8 17.4418 12.8 17L11.2 17ZM20.2 12C20.2 16.5287 16.5287 20.2 12 20.2V21.8C17.4124 21.8 21.8 17.4124 21.8 12H20.2ZM12 20.2C7.47126 20.2 3.8 16.5287 3.8 12H2.2C2.2 17.4124 6.58761 21.8 12 21.8V20.2ZM3.8 12C3.8 7.47126 7.47126 3.8 12 3.8V2.2C6.58761 2.2 2.2 6.58761 2.2 12H3.8ZM12 3.8C16.5287 3.8 20.2 7.47126 20.2 12H21.8C21.8 6.58761 17.4124 2.2 12 2.2V3.8ZM12 11.2C11.3075 11.2 10.7167 11.0114 10.3224 10.7486C9.92257 10.482 9.8 10.2016 9.8 10H8.2C8.2 10.903 8.749 11.6226 9.43492 12.0799C10.1264 12.5409 11.0357 12.8 12 12.8V11.2ZM9.8 10C9.8 9.79842 9.92257 9.518 10.3224 9.25143C10.7167 8.98858 11.3075 8.8 12 8.8V7.2C11.0357 7.2 10.1264 7.45914 9.43492 7.92015C8.749 8.37743 8.2 9.09701 8.2 10H9.8ZM12 8.8C12.9451 8.8 13.6664 9.14629 13.9944 9.5243L15.2029 8.4757C14.4935 7.65811 13.2757 7.2 12 7.2V8.8ZM12 12.8C12.6925 12.8 13.2833 12.9886 13.6776 13.2514C14.0774 13.518 14.2 13.7984 14.2 14H15.8C15.8 13.097 15.251 12.3774 14.5651 11.9201C13.8736 11.4591 12.9643 11.2 12 11.2V12.8ZM11.2 7V8H12.8V7H11.2ZM11.2 16L11.2 17L12.8 17L12.8 16L11.2 16ZM12 15.2C11.0549 15.2 10.3336 14.8537 10.0056 14.4757L8.79713 15.5243C9.50655 16.3419 10.7243 16.8 12 16.8L12 15.2ZM14.2 14C14.2 14.2016 14.0774 14.482 13.6776 14.7486C13.2833 15.0114 12.6925 15.2 12 15.2V16.8C12.9644 16.8 13.8736 16.5409 14.5651 16.0799C15.251 15.6226 15.8 14.903 15.8 14H14.2ZM11.2 8L11.2 16L12.8 16L12.8 8L11.2 8Z" fill="#010406"/>
</svg>
