<svg width="24" height="24" viewBox="0 0 24 24" fill="none" xmlns="http://www.w3.org/2000/svg">
<path d="M5.5 12.7222C5.5 16.5882 8.63401 19.7222 12.5 19.7222C13.0149 19.7222 13.5168 19.6666 14 19.5611M13 5.73975C16.1268 5.96043 18.6867 8.23477 19.3389 11.2222M1 5.44444L1.61111 6.66667H5.27778M7.11111 4.83333V3M2.22222 3H11.3889M8.33333 4.8945V7.27784H11.6944M8.33333 10.9444V9.11111M10.7778 10.9444H5.88889M11 15.4444L11.6111 16.6667H15.2778M17.1111 14.8333V13M12.2222 13H21.3889M18.3333 14.8945V17.2778H21.6944M18.3333 20.9444V19.1111M20.7778 20.9444H15.8889M6.5 4.83333C6.17585 4.83333 5.86497 4.9621 5.63576 5.19131C5.40655 5.42052 5.27778 5.7314 5.27778 6.05556V7.88889C5.27778 8.56111 5.82778 9.11111 6.5 9.11111H10.7778C11.1019 9.11111 11.4128 8.98234 11.642 8.75313C11.8712 8.52392 12 8.21304 12 7.88889C12 5.86611 10.0872 4.83333 7.72222 4.83333H6.5ZM16.5 14.8333C16.1758 14.8333 15.865 14.9621 15.6358 15.1913C15.4065 15.4205 15.2778 15.7314 15.2778 16.0556V17.8889C15.2778 18.5611 15.8278 19.1111 16.5 19.1111H20.7778C21.1019 19.1111 21.4128 18.9823 21.642 18.7531C21.8712 18.5239 22 18.213 22 17.8889C22 15.8661 20.0872 14.8333 17.7222 14.8333H16.5Z" stroke="#010406" stroke-width="1.2" stroke-linecap="round" stroke-linejoin="round"/>
</svg>
