<svg width="28" height="28" viewBox="0 0 28 28" fill="none" xmlns="http://www.w3.org/2000/svg">
<path fill-rule="evenodd" clip-rule="evenodd" d="M0 14.0001C0 6.26807 6.26801 6.10352e-05 14 6.10352e-05C21.732 6.10352e-05 28 6.26807 28 14.0001C28 21.732 21.732 28.0001 14 28.0001C6.26801 28.0001 0 21.732 0 14.0001ZM14 7.00006C17.85 7.00006 21 10.1501 21 14.0001C21 17.5001 18.4625 20.4751 14.9625 21.0001V16.0126H16.625L16.975 14.0001H15.05V12.6876C15.05 12.1626 15.3125 11.6376 16.1875 11.6376H17.0625V9.88756C17.0625 9.88756 16.275 9.71256 15.4875 9.71256C13.9125 9.71256 12.8625 10.6751 12.8625 12.4251V14.0001H11.1125V16.0126H12.8625V20.9126C9.5375 20.3876 7 17.5001 7 14.0001C7 10.1501 10.15 7.00006 14 7.00006Z" fill="#273675"/>
</svg>
