<svg width="17" height="16" viewBox="0 0 17 16" fill="none" xmlns="http://www.w3.org/2000/svg">
<path d="M3.16669 4.66699V4.00033C3.16669 3.6467 3.30716 3.30756 3.55721 3.05752C3.80726 2.80747 4.1464 2.66699 4.50002 2.66699H5.83335M3.16669 11.3337V12.0003C3.16669 12.3539 3.30716 12.6931 3.55721 12.9431C3.80726 13.1932 4.1464 13.3337 4.50002 13.3337H5.83335M11.1667 2.66699H12.5C12.8536 2.66699 13.1928 2.80747 13.4428 3.05752C13.6929 3.30756 13.8334 3.6467 13.8334 4.00033V4.66699M11.1667 13.3337H12.5C12.8536 13.3337 13.1928 13.1932 13.4428 12.9431C13.6929 12.6931 13.8334 12.3539 13.8334 12.0003V11.3337M3.83335 8.00033H13.1667" stroke="#F4EEE6" stroke-linecap="round" stroke-linejoin="round"/>
</svg>
