<svg width="40" height="40" viewBox="0 0 40 40" fill="none" xmlns="http://www.w3.org/2000/svg">
<rect width="40" height="40" rx="20" fill="#273675"/>
<path d="M17.2366 21.1183C17.4051 20.7818 17.5 20.402 17.5 20C17.5 19.598 17.4051 19.2182 17.2366 18.8817M17.2366 21.1183C16.8261 21.9376 15.9787 22.5 15 22.5C13.6193 22.5 12.5 21.3807 12.5 20C12.5 18.6193 13.6193 17.5 15 17.5C15.9787 17.5 16.8261 18.0624 17.2366 18.8817M17.2366 21.1183L22.7634 23.8817M17.2366 18.8817L22.7634 16.1183M22.7634 16.1183C23.1739 16.9376 24.0213 17.5 25 17.5C26.3807 17.5 27.5 16.3807 27.5 15C27.5 13.6193 26.3807 12.5 25 12.5C23.6193 12.5 22.5 13.6193 22.5 15C22.5 15.402 22.5949 15.7818 22.7634 16.1183ZM22.7634 23.8817C22.5949 24.2182 22.5 24.598 22.5 25C22.5 26.3807 23.6193 27.5 25 27.5C26.3807 27.5 27.5 26.3807 27.5 25C27.5 23.6193 26.3807 22.5 25 22.5C24.0213 22.5 23.1739 23.0624 22.7634 23.8817Z" stroke="#F4EEE6" stroke-linecap="round" stroke-linejoin="round"/>
</svg>
