<svg width="24" height="24" viewBox="0 0 24 24" fill="none" xmlns="http://www.w3.org/2000/svg">
<path d="M8.8499 10.95V6.35623C8.8499 5.62522 9.18178 4.92416 9.77252 4.40726C10.3633 3.89037 11.1645 3.59998 11.9999 3.59998C12.8353 3.59998 13.6366 3.89037 14.2273 4.40726C14.818 4.92416 15.1499 5.62522 15.1499 6.35623V10.95M6.56675 7.79998H17.4331C17.7094 7.79994 17.9825 7.86035 18.2336 7.97705C18.4847 8.09376 18.7079 8.264 18.8878 8.47611C19.0678 8.68822 19.2003 8.93719 19.2762 9.20593C19.3521 9.47467 19.3696 9.75684 19.3276 10.0331L18.125 17.9343C18.0205 18.6209 17.6765 19.247 17.1551 19.6993C16.6338 20.1516 15.9695 20.4002 15.2826 20.4H8.71625C8.02952 20.3999 7.36549 20.1513 6.84431 19.699C6.32313 19.2468 5.97924 18.6207 5.87485 17.9343L4.67217 10.0331C4.63017 9.75684 4.64772 9.47467 4.72364 9.20593C4.79955 8.93719 4.93203 8.68822 5.11199 8.47611C5.29194 8.264 5.51512 8.09376 5.76622 7.97705C6.01732 7.86035 6.29041 7.79994 6.56675 7.79998Z" stroke="#010406" stroke-width="1.6" stroke-linecap="round" stroke-linejoin="round"/>
</svg>
