<svg width="24" height="24" viewBox="0 0 24 24" fill="none" xmlns="http://www.w3.org/2000/svg">
<path d="M1.5 5.72228L2.11111 6.9445H5.77778M7.61111 5.11117V3.27783M2.72222 3.27783H11.8889M8.83333 5.17234V7.55567H12.1944M8.83333 11.2223V9.38894M11.2778 11.2223H6.38889M11.5 15.7223L12.1111 16.9445H15.7778M17.6111 15.1112V13.2778M12.7222 13.2778H21.8889M18.8333 15.1723V17.5557H22.1944M18.8333 21.2223V19.3889M21.2778 21.2223H16.3889M7 5.11117C6.67585 5.11117 6.36497 5.23993 6.13576 5.46915C5.90655 5.69836 5.77778 6.00923 5.77778 6.33339V8.16672C5.77778 8.83894 6.32778 9.38894 7 9.38894H11.2778C11.6019 9.38894 11.9128 9.26017 12.142 9.03096C12.3712 8.80175 12.5 8.49087 12.5 8.16672C12.5 6.14394 10.5872 5.11117 8.22222 5.11117H7ZM17 15.1112C16.6758 15.1112 16.365 15.2399 16.1358 15.4691C15.9065 15.6984 15.7778 16.0092 15.7778 16.3334V18.1667C15.7778 18.8389 16.3278 19.3889 17 19.3889H21.2778C21.6019 19.3889 21.9128 19.2602 22.142 19.031C22.3712 18.8018 22.5 18.4909 22.5 18.1667C22.5 16.1439 20.5872 15.1112 18.2222 15.1112H17Z" stroke="#010406" stroke-width="1.2" stroke-linecap="round" stroke-linejoin="round"/>
</svg>
