<svg width="28" height="28" viewBox="0 0 28 28" fill="none" xmlns="http://www.w3.org/2000/svg">
<path d="M14 16.45C12.6875 16.45 11.55 15.4 11.55 14C11.55 12.6875 12.6 11.55 14 11.55C15.3125 11.55 16.45 12.6 16.45 14C16.45 15.3125 15.3125 16.45 14 16.45Z" fill="#475694"/>
<path fill-rule="evenodd" clip-rule="evenodd" d="M16.975 8.05003H11.025C10.325 8.13753 9.975 8.22503 9.7125 8.31253C9.3625 8.40003 9.1 8.57503 8.8375 8.83753C8.62979 9.04524 8.53165 9.25296 8.41303 9.50402C8.38176 9.57019 8.34899 9.63955 8.3125 9.71253C8.29896 9.75314 8.28333 9.79584 8.26658 9.84161C8.17504 10.0917 8.05 10.4333 8.05 11.025V16.975C8.1375 17.675 8.225 18.025 8.3125 18.2875C8.4 18.6375 8.575 18.9 8.8375 19.1625C9.04521 19.3702 9.25293 19.4684 9.50399 19.587C9.57022 19.6183 9.63945 19.651 9.7125 19.6875C9.75311 19.7011 9.79581 19.7167 9.84158 19.7334C10.0917 19.825 10.4333 19.95 11.025 19.95H16.975C17.675 19.8625 18.025 19.775 18.2875 19.6875C18.6375 19.6 18.9 19.425 19.1625 19.1625C19.3702 18.9548 19.4684 18.7471 19.587 18.496C19.6183 18.4298 19.651 18.3606 19.6875 18.2875C19.701 18.2469 19.7167 18.2042 19.7334 18.1584C19.825 17.9084 19.95 17.5667 19.95 16.975V11.025C19.8625 10.325 19.775 9.97503 19.6875 9.71253C19.6 9.36253 19.425 9.10003 19.1625 8.83753C18.9548 8.62982 18.7471 8.53168 18.496 8.41305C18.4299 8.38181 18.3604 8.34899 18.2875 8.31253C18.2469 8.29899 18.2042 8.28336 18.1584 8.26661C17.9083 8.17507 17.5667 8.05003 16.975 8.05003ZM14 10.2375C11.9 10.2375 10.2375 11.9 10.2375 14C10.2375 16.1 11.9 17.7625 14 17.7625C16.1 17.7625 17.7625 16.1 17.7625 14C17.7625 11.9 16.1 10.2375 14 10.2375ZM18.725 10.15C18.725 10.6333 18.3332 11.025 17.85 11.025C17.3668 11.025 16.975 10.6333 16.975 10.15C16.975 9.66678 17.3668 9.27503 17.85 9.27503C18.3332 9.27503 18.725 9.66678 18.725 10.15Z" fill="#475694"/>
<path fill-rule="evenodd" clip-rule="evenodd" d="M0 14C0 6.26804 6.26801 3.05176e-05 14 3.05176e-05C21.732 3.05176e-05 28 6.26804 28 14C28 21.732 21.732 28 14 28C6.26801 28 0 21.732 0 14ZM11.025 6.73753H16.975C17.7625 6.82503 18.2875 6.91253 18.725 7.08753C19.25 7.35003 19.6 7.52503 20.0375 7.96253C20.475 8.40003 20.7375 8.83753 20.9125 9.27503C21.0875 9.71253 21.2625 10.2375 21.2625 11.025V16.975C21.175 17.7625 21.0875 18.2875 20.9125 18.725C20.65 19.25 20.475 19.6 20.0375 20.0375C19.6 20.475 19.1625 20.7375 18.725 20.9125C18.2875 21.0875 17.7625 21.2625 16.975 21.2625H11.025C10.2375 21.175 9.7125 21.0875 9.275 20.9125C8.75 20.65 8.4 20.475 7.9625 20.0375C7.525 19.6 7.2625 19.1625 7.0875 18.725C6.9125 18.2875 6.7375 17.7625 6.7375 16.975V11.025C6.825 10.2375 6.9125 9.71253 7.0875 9.27503C7.35 8.75003 7.525 8.40003 7.9625 7.96253C8.4 7.52503 8.8375 7.26253 9.275 7.08753C9.7125 6.91253 10.2375 6.73753 11.025 6.73753Z" fill="#475694"/>
</svg>
