<svg width="24" height="24" viewBox="0 0 24 24" fill="none" xmlns="http://www.w3.org/2000/svg">
<path d="M9.56569 13.4343C9.25327 13.1219 8.74673 13.1219 8.43431 13.4343C8.1219 13.7467 8.1219 14.2533 8.43431 14.5657L9.56569 13.4343ZM11 16L10.4343 16.5657C10.7467 16.8781 11.2533 16.8781 11.5657 16.5657L11 16ZM15.5657 12.5657C15.8781 12.2533 15.8781 11.7467 15.5657 11.4343C15.2533 11.1219 14.7467 11.1219 14.4343 11.4343L15.5657 12.5657ZM18.2 7V19H19.8V7H18.2ZM17 20.2H7V21.8H17V20.2ZM5.8 19V7H4.2V19H5.8ZM7 5.8H9V4.2H7V5.8ZM15 5.8H17V4.2H15V5.8ZM7 20.2C6.33726 20.2 5.8 19.6627 5.8 19H4.2C4.2 20.5464 5.4536 21.8 7 21.8V20.2ZM18.2 19C18.2 19.6627 17.6627 20.2 17 20.2V21.8C18.5464 21.8 19.8 20.5464 19.8 19H18.2ZM19.8 7C19.8 5.4536 18.5464 4.2 17 4.2V5.8C17.6627 5.8 18.2 6.33726 18.2 7H19.8ZM5.8 7C5.8 6.33726 6.33726 5.8 7 5.8V4.2C5.4536 4.2 4.2 5.4536 4.2 7H5.8ZM8.43431 14.5657L10.4343 16.5657L11.5657 15.4343L9.56569 13.4343L8.43431 14.5657ZM11.5657 16.5657L15.5657 12.5657L14.4343 11.4343L10.4343 15.4343L11.5657 16.5657ZM11 3.8H13V2.2H11V3.8ZM13 6.2H11V7.8H13V6.2ZM11 6.2C10.3373 6.2 9.8 5.66274 9.8 5H8.2C8.2 6.5464 9.4536 7.8 11 7.8V6.2ZM14.2 5C14.2 5.66274 13.6627 6.2 13 6.2V7.8C14.5464 7.8 15.8 6.5464 15.8 5H14.2ZM13 3.8C13.6627 3.8 14.2 4.33726 14.2 5H15.8C15.8 3.4536 14.5464 2.2 13 2.2V3.8ZM11 2.2C9.4536 2.2 8.2 3.4536 8.2 5H9.8C9.8 4.33726 10.3373 3.8 11 3.8V2.2Z" fill="#010406"/>
</svg>
