<svg width="24" height="24" viewBox="0 0 24 24" fill="none" xmlns="http://www.w3.org/2000/svg">
<path d="M1 9.44455L2.22222 11.889H9.55556M13.2222 8.22233V4.55566M3.44444 4.55566H21.7778M15.6667 8.34467V13.1113H22.3889M15.6667 20.4446V16.7779M20.5556 20.4446H10.7778M12 8.22233C11.3517 8.22233 10.7299 8.47987 10.2715 8.93829C9.81309 9.39671 9.55555 10.0185 9.55555 10.6668V14.3334C9.55555 15.6779 10.6556 16.7779 12 16.7779H20.5556C21.2039 16.7779 21.8256 16.5203 22.284 16.0619C22.7425 15.6035 23 14.9817 23 14.3334C23 10.2879 19.1744 8.22233 14.4444 8.22233H12Z" stroke="#010406" stroke-width="1.6" stroke-linecap="round" stroke-linejoin="round"/>
</svg>
