<svg width="24" height="24" viewBox="0 0 24 24" fill="none" xmlns="http://www.w3.org/2000/svg">
<path d="M12.8 4C12.8 3.55817 12.4418 3.2 12 3.2C11.5582 3.2 11.2 3.55817 11.2 4H12.8ZM11.2 5C11.2 5.44183 11.5582 5.8 12 5.8C12.4418 5.8 12.8 5.44183 12.8 5H11.2ZM18 15.2C17.5582 15.2 17.2 15.5582 17.2 16C17.2 16.4418 17.5582 16.8 18 16.8V15.2ZM20 16.8C20.4418 16.8 20.8 16.4418 20.8 16C20.8 15.5582 20.4418 15.2 20 15.2V16.8ZM12 16V15.2C11.5582 15.2 11.2 15.5582 11.2 16H12ZM14 16.8C14.4418 16.8 14.8 16.4418 14.8 16C14.8 15.5582 14.4418 15.2 14 15.2V16.8ZM11.2 20C11.2 20.4418 11.5582 20.8 12 20.8C12.4418 20.8 12.8 20.4418 12.8 20H11.2ZM12.8 9C12.8 8.55817 12.4418 8.2 12 8.2C11.5582 8.2 11.2 8.55817 11.2 9H12.8ZM12 12H11.2C11.2 12.4418 11.5582 12.8 12 12.8V12ZM16 19.2C15.5582 19.2 15.2 19.5582 15.2 20C15.2 20.4418 15.5582 20.8 16 20.8V19.2ZM20 20.8C20.4418 20.8 20.8 20.4418 20.8 20C20.8 19.5582 20.4418 19.2 20 19.2V20.8ZM4 11.2C3.55817 11.2 3.2 11.5582 3.2 12C3.2 12.4418 3.55817 12.8 4 12.8V11.2ZM8 12.8C8.44183 12.8 8.8 12.4418 8.8 12C8.8 11.5582 8.44183 11.2 8 11.2V12.8ZM12.01 12.8C12.4518 12.8 12.81 12.4418 12.81 12C12.81 11.5582 12.4518 11.2 12.01 11.2V12.8ZM16.01 12.8C16.4518 12.8 16.81 12.4418 16.81 12C16.81 11.5582 16.4518 11.2 16.01 11.2V12.8ZM20 11.2C19.5582 11.2 19.2 11.5582 19.2 12C19.2 12.4418 19.5582 12.8 20 12.8V11.2ZM20.01 12.8C20.4518 12.8 20.81 12.4418 20.81 12C20.81 11.5582 20.4518 11.2 20.01 11.2V12.8ZM5 4.8H7V3.2H5V4.8ZM7.2 5V7H8.8V5H7.2ZM7 7.2H5V8.8H7V7.2ZM4.8 7V5H3.2V7H4.8ZM5 7.2C4.88954 7.2 4.8 7.11046 4.8 7H3.2C3.2 7.99411 4.00589 8.8 5 8.8V7.2ZM7.2 7C7.2 7.11046 7.11046 7.2 7 7.2V8.8C7.99411 8.8 8.8 7.99411 8.8 7H7.2ZM7 4.8C7.11046 4.8 7.2 4.88954 7.2 5H8.8C8.8 4.00589 7.99411 3.2 7 3.2V4.8ZM5 3.2C4.00589 3.2 3.2 4.00589 3.2 5H4.8C4.8 4.88954 4.88954 4.8 5 4.8V3.2ZM17 4.8H19V3.2H17V4.8ZM19.2 5V7H20.8V5H19.2ZM19 7.2H17V8.8H19V7.2ZM16.8 7V5H15.2V7H16.8ZM17 7.2C16.8895 7.2 16.8 7.11046 16.8 7H15.2C15.2 7.99411 16.0059 8.8 17 8.8V7.2ZM19.2 7C19.2 7.11046 19.1105 7.2 19 7.2V8.8C19.9941 8.8 20.8 7.99411 20.8 7H19.2ZM19 4.8C19.1105 4.8 19.2 4.88954 19.2 5H20.8C20.8 4.00589 19.9941 3.2 19 3.2V4.8ZM17 3.2C16.0059 3.2 15.2 4.00589 15.2 5H16.8C16.8 4.88954 16.8895 4.8 17 4.8V3.2ZM5 16.8H7V15.2H5V16.8ZM7.2 17V19H8.8V17H7.2ZM7 19.2H5V20.8H7V19.2ZM4.8 19V17H3.2V19H4.8ZM5 19.2C4.88954 19.2 4.8 19.1105 4.8 19H3.2C3.2 19.9941 4.00589 20.8 5 20.8V19.2ZM7.2 19C7.2 19.1105 7.11046 19.2 7 19.2V20.8C7.99411 20.8 8.8 19.9941 8.8 19H7.2ZM7 16.8C7.11046 16.8 7.2 16.8895 7.2 17H8.8C8.8 16.0059 7.99411 15.2 7 15.2V16.8ZM5 15.2C4.00589 15.2 3.2 16.0059 3.2 17H4.8C4.8 16.8895 4.88954 16.8 5 16.8V15.2ZM11.2 4V5H12.8V4H11.2ZM18 16.8H20V15.2H18V16.8ZM12 16.8H14V15.2H12V16.8ZM11.2 16V20H12.8V16H11.2ZM11.2 9V12H12.8V9H11.2ZM16 20.8H20V19.2H16V20.8ZM4 12.8H8V11.2H4V12.8ZM12 12.8H12.01V11.2H12V12.8ZM20 12.8H20.01V11.2H20V12.8ZM12 12.8H16.01V11.2H12V12.8Z" fill="#010406"/>
</svg>
