<svg width="24" height="24" viewBox="0 0 24 24" fill="none" xmlns="http://www.w3.org/2000/svg">
<path d="M4 4V3.2H3.2V4H4ZM20 4H20.8V3.2H20V4ZM6.43431 11.4343C6.1219 11.7467 6.1219 12.2533 6.43431 12.5657C6.74673 12.8781 7.25327 12.8781 7.56569 12.5657L6.43431 11.4343ZM10 9L10.5657 8.43431C10.2533 8.1219 9.74673 8.1219 9.43431 8.43431L10 9ZM13 12L12.4343 12.5657C12.7467 12.8781 13.2533 12.8781 13.5657 12.5657L13 12ZM17.5657 8.56569C17.8781 8.25327 17.8781 7.74673 17.5657 7.43431C17.2533 7.1219 16.7467 7.1219 16.4343 7.43431L17.5657 8.56569ZM7.43431 20.4343C7.1219 20.7467 7.1219 21.2533 7.43431 21.5657C7.74673 21.8781 8.25327 21.8781 8.56569 21.5657L7.43431 20.4343ZM12 17L12.5657 16.4343C12.2533 16.1219 11.7467 16.1219 11.4343 16.4343L12 17ZM15.4343 21.5657C15.7467 21.8781 16.2533 21.8781 16.5657 21.5657C16.8781 21.2533 16.8781 20.7467 16.5657 20.4343L15.4343 21.5657ZM3 3.2C2.55817 3.2 2.2 3.55817 2.2 4C2.2 4.44183 2.55817 4.8 3 4.8V3.2ZM21 4.8C21.4418 4.8 21.8 4.44183 21.8 4C21.8 3.55817 21.4418 3.2 21 3.2V4.8ZM4 4.8H20V3.2H4V4.8ZM19.2 4V16H20.8V4H19.2ZM19 16.2H5V17.8H19V16.2ZM4.8 16V4H3.2V16H4.8ZM5 16.2C4.88954 16.2 4.8 16.1105 4.8 16H3.2C3.2 16.9941 4.00589 17.8 5 17.8V16.2ZM19.2 16C19.2 16.1105 19.1105 16.2 19 16.2V17.8C19.9941 17.8 20.8 16.9941 20.8 16H19.2ZM7.56569 12.5657L10.5657 9.56569L9.43431 8.43431L6.43431 11.4343L7.56569 12.5657ZM9.43431 9.56569L12.4343 12.5657L13.5657 11.4343L10.5657 8.43431L9.43431 9.56569ZM13.5657 12.5657L17.5657 8.56569L16.4343 7.43431L12.4343 11.4343L13.5657 12.5657ZM8.56569 21.5657L12.5657 17.5657L11.4343 16.4343L7.43431 20.4343L8.56569 21.5657ZM11.4343 17.5657L15.4343 21.5657L16.5657 20.4343L12.5657 16.4343L11.4343 17.5657ZM3 4.8H21V3.2H3V4.8Z" fill="#010406"/>
</svg>
