<svg width="28" height="24" viewBox="0 0 28 24" fill="none" xmlns="http://www.w3.org/2000/svg">
<path d="M1.5 10.7223L2.11111 11.9445H5.77778M7.61111 10.1112V8.27783M2.72222 8.27783H11.8889M8.83333 10.1723V12.5557H12.1944M8.83333 16.2223V14.3889M11.2778 16.2223H6.38889M15.5 10.7223L16.1111 11.9445H19.7778M21.6111 10.1112V8.27783M16.7222 8.27783H25.8889M22.8333 10.1723V12.5557H26.1944M22.8333 16.2223V14.3889M25.2778 16.2223H20.3889M7 10.1112C6.67585 10.1112 6.36497 10.2399 6.13576 10.4691C5.90655 10.6984 5.77778 11.0092 5.77778 11.3334V13.1667C5.77778 13.8389 6.32778 14.3889 7 14.3889H11.2778C11.6019 14.3889 11.9128 14.2602 12.142 14.031C12.3712 13.8018 12.5 13.4909 12.5 13.1667C12.5 11.1439 10.5872 10.1112 8.22222 10.1112H7ZM21 10.1112C20.6758 10.1112 20.365 10.2399 20.1358 10.4691C19.9065 10.6984 19.7778 11.0092 19.7778 11.3334V13.1667C19.7778 13.8389 20.3278 14.3889 21 14.3889H25.2778C25.6019 14.3889 25.9128 14.2602 26.142 14.031C26.3712 13.8018 26.5 13.4909 26.5 13.1667C26.5 11.1439 24.5872 10.1112 22.2222 10.1112H21Z" stroke="#010406" stroke-width="1.2" stroke-linecap="round" stroke-linejoin="round"/>
</svg>
