<svg width="24" height="24" viewBox="0 0 24 24" fill="none" xmlns="http://www.w3.org/2000/svg">
<path d="M20.2 12C20.2 16.5287 16.5287 20.2 12 20.2V21.8C17.4124 21.8 21.8 17.4124 21.8 12H20.2ZM12 20.2C7.47126 20.2 3.8 16.5287 3.8 12H2.2C2.2 17.4124 6.58761 21.8 12 21.8V20.2ZM3.8 12C3.8 7.47126 7.47126 3.8 12 3.8V2.2C6.58761 2.2 2.2 6.58761 2.2 12H3.8ZM12 3.8C16.5287 3.8 20.2 7.47126 20.2 12H21.8C21.8 6.58761 17.4124 2.2 12 2.2V3.8ZM15.2 12C15.2 13.7673 13.7673 15.2 12 15.2V16.8C14.651 16.8 16.8 14.651 16.8 12H15.2ZM12 15.2C10.2327 15.2 8.8 13.7673 8.8 12H7.2C7.2 14.651 9.34903 16.8 12 16.8V15.2ZM8.8 12C8.8 10.2327 10.2327 8.8 12 8.8V7.2C9.34903 7.2 7.2 9.34903 7.2 12H8.8ZM12 8.8C13.7673 8.8 15.2 10.2327 15.2 12H16.8C16.8 9.34903 14.651 7.2 12 7.2V8.8ZM17.7983 5.07035L14.2627 8.60589L15.3941 9.73726L18.9296 6.20172L17.7983 5.07035ZM14.2627 15.3941L17.7983 18.9296L18.9296 17.7983L15.3941 14.2627L14.2627 15.3941ZM9.73726 8.60589L6.20172 5.07035L5.07035 6.20172L8.60589 9.73726L9.73726 8.60589ZM8.60589 14.2627L5.07035 17.7983L6.20172 18.9296L9.73726 15.3941L8.60589 14.2627Z" fill="#010406"/>
</svg>
