<svg width="28" height="24" viewBox="0 0 28 24" fill="none" xmlns="http://www.w3.org/2000/svg">
<path d="M1.5 16.4444L2.11111 17.6667H5.77778M7.61111 15.8333V14M2.72222 14H11.8889M8.83333 15.8945V18.2778H12.1944M8.83333 21.9444V20.1111M11.2778 21.9444H6.38889M15.5 16.4444L16.1111 17.6667H19.7778M21.6111 15.8333V14M16.7222 14H25.8889M22.8333 15.8945V18.2778H26.1944M22.8333 21.9444V20.1111M25.2778 21.9444H20.3889M8.5 4.72228L9.11111 5.9445H12.7778M14.6111 4.11117V2.27783M9.72222 2.27783H18.8889M15.8333 4.17234V6.55567H19.1944M15.8333 10.2223V8.38894M18.2778 10.2223H13.3889M7 15.8333C6.67585 15.8333 6.36497 15.9621 6.13576 16.1913C5.90655 16.4205 5.77778 16.7314 5.77778 17.0556V18.8889C5.77778 19.5611 6.32778 20.1111 7 20.1111H11.2778C11.6019 20.1111 11.9128 19.9823 12.142 19.7531C12.3712 19.5239 12.5 19.213 12.5 18.8889C12.5 16.8661 10.5872 15.8333 8.22222 15.8333H7ZM21 15.8333C20.6758 15.8333 20.365 15.9621 20.1358 16.1913C19.9065 16.4205 19.7778 16.7314 19.7778 17.0556V18.8889C19.7778 19.5611 20.3278 20.1111 21 20.1111H25.2778C25.6019 20.1111 25.9128 19.9823 26.142 19.7531C26.3712 19.5239 26.5 19.213 26.5 18.8889C26.5 16.8661 24.5872 15.8333 22.2222 15.8333H21ZM14 4.11117C13.6758 4.11117 13.365 4.23993 13.1358 4.46915C12.9065 4.69836 12.7778 5.00923 12.7778 5.33339V7.16672C12.7778 7.83894 13.3278 8.38894 14 8.38894H18.2778C18.6019 8.38894 18.9128 8.26017 19.142 8.03096C19.3712 7.80175 19.5 7.49087 19.5 7.16672C19.5 5.14394 17.5872 4.11117 15.2222 4.11117H14Z" stroke="#010406" stroke-width="1.2" stroke-linecap="round" stroke-linejoin="round"/>
</svg>
